<svg id="mermaid-diagram-mobile" width="100%" xmlns="http://www.w3.org/2000/svg" class="flowchart" style="max-width: 1684.4832763671875px;" viewBox="0 0 1684.4832763671875 496" role="graphics-document document" aria-roledescription="flowchart-v2"><style>#mermaid-diagram-mobile{font-family:Arial,sans-serif;font-size:16px;fill:#333;}@keyframes edge-animation-frame{from{stroke-dashoffset:0;}}@keyframes dash{to{stroke-dashoffset:0;}}#mermaid-diagram-mobile .edge-animation-slow{stroke-dasharray:9,5!important;stroke-dashoffset:900;animation:dash 50s linear infinite;stroke-linecap:round;}#mermaid-diagram-mobile .edge-animation-fast{stroke-dasharray:9,5!important;stroke-dashoffset:900;animation:dash 20s linear infinite;stroke-linecap:round;}#mermaid-diagram-mobile .error-icon{fill:#552222;}#mermaid-diagram-mobile .error-text{fill:#552222;stroke:#552222;}#mermaid-diagram-mobile .edge-thickness-normal{stroke-width:1px;}#mermaid-diagram-mobile .edge-thickness-thick{stroke-width:3.5px;}#mermaid-diagram-mobile .edge-pattern-solid{stroke-dasharray:0;}#mermaid-diagram-mobile .edge-thickness-invisible{stroke-width:0;fill:none;}#mermaid-diagram-mobile .edge-pattern-dashed{stroke-dasharray:3;}#mermaid-diagram-mobile .edge-pattern-dotted{stroke-dasharray:2;}#mermaid-diagram-mobile .marker{fill:#333333;stroke:#333333;}#mermaid-diagram-mobile .marker.cross{stroke:#333333;}#mermaid-diagram-mobile svg{font-family:Arial,sans-serif;font-size:16px;}#mermaid-diagram-mobile p{margin:0;}#mermaid-diagram-mobile .label{font-family:Arial,sans-serif;color:#333;}#mermaid-diagram-mobile .cluster-label text{fill:#333;}#mermaid-diagram-mobile .cluster-label span{color:#333;}#mermaid-diagram-mobile .cluster-label span p{background-color:transparent;}#mermaid-diagram-mobile .label text,#mermaid-diagram-mobile span{fill:#333;color:#333;}#mermaid-diagram-mobile .node rect,#mermaid-diagram-mobile .node circle,#mermaid-diagram-mobile .node ellipse,#mermaid-diagram-mobile .node polygon,#mermaid-diagram-mobile .node path{fill:#ECECFF;stroke:#9370DB;stroke-width:1px;}#mermaid-diagram-mobile .rough-node .label text,#mermaid-diagram-mobile .node .label text,#mermaid-diagram-mobile .image-shape .label,#mermaid-diagram-mobile .icon-shape .label{text-anchor:middle;}#mermaid-diagram-mobile .node .katex path{fill:#000;stroke:#000;stroke-width:1px;}#mermaid-diagram-mobile .rough-node .label,#mermaid-diagram-mobile .node .label,#mermaid-diagram-mobile .image-shape .label,#mermaid-diagram-mobile .icon-shape .label{text-align:center;}#mermaid-diagram-mobile .node.clickable{cursor:pointer;}#mermaid-diagram-mobile .root .anchor path{fill:#333333!important;stroke-width:0;stroke:#333333;}#mermaid-diagram-mobile .arrowheadPath{fill:#333333;}#mermaid-diagram-mobile .edgePath .path{stroke:#333333;stroke-width:2.0px;}#mermaid-diagram-mobile .flowchart-link{stroke:#333333;fill:none;}#mermaid-diagram-mobile .edgeLabel{background-color:rgba(232,232,232, 0.8);text-align:center;}#mermaid-diagram-mobile .edgeLabel p{background-color:rgba(232,232,232, 0.8);}#mermaid-diagram-mobile .edgeLabel rect{opacity:0.5;background-color:rgba(232,232,232, 0.8);fill:rgba(232,232,232, 0.8);}#mermaid-diagram-mobile .labelBkg{background-color:rgba(232, 232, 232, 0.5);}#mermaid-diagram-mobile .cluster rect{fill:#ffffde;stroke:#aaaa33;stroke-width:1px;}#mermaid-diagram-mobile .cluster text{fill:#333;}#mermaid-diagram-mobile .cluster span{color:#333;}#mermaid-diagram-mobile div.mermaidTooltip{position:absolute;text-align:center;max-width:200px;padding:2px;font-family:Arial,sans-serif;font-size:12px;background:hsl(80, 100%, 96.2745098039%);border:1px solid #aaaa33;border-radius:2px;pointer-events:none;z-index:100;}#mermaid-diagram-mobile .flowchartTitleText{text-anchor:middle;font-size:18px;fill:#333;}#mermaid-diagram-mobile rect.text{fill:none;stroke-width:0;}#mermaid-diagram-mobile .icon-shape,#mermaid-diagram-mobile .image-shape{background-color:rgba(232,232,232, 0.8);text-align:center;}#mermaid-diagram-mobile .icon-shape p,#mermaid-diagram-mobile .image-shape p{background-color:rgba(232,232,232, 0.8);padding:2px;}#mermaid-diagram-mobile .icon-shape rect,#mermaid-diagram-mobile .image-shape rect{opacity:0.5;background-color:rgba(232,232,232, 0.8);fill:rgba(232,232,232, 0.8);}#mermaid-diagram-mobile .label-icon{display:inline-block;height:1em;overflow:visible;vertical-align:-0.125em;}#mermaid-diagram-mobile .node .label-icon path{fill:currentColor;stroke:revert;stroke-width:revert;}#mermaid-diagram-mobile :root{--mermaid-font-family:Arial,sans-serif;}</style><g><marker id="mermaid-diagram-mobile_flowchart-v2-pointEnd" class="marker flowchart-v2" viewBox="0 0 10 10" refX="5" refY="5" markerUnits="userSpaceOnUse" markerWidth="8" markerHeight="8" orient="auto"><path d="M 0 0 L 10 5 L 0 10 z" class="arrowMarkerPath" style="stroke-width: 1px; stroke-dasharray: 1px, 0px;"/></marker><marker id="mermaid-diagram-mobile_flowchart-v2-pointStart" class="marker flowchart-v2" viewBox="0 0 10 10" refX="4.5" refY="5" markerUnits="userSpaceOnUse" markerWidth="8" markerHeight="8" orient="auto"><path d="M 0 5 L 10 10 L 10 0 z" class="arrowMarkerPath" style="stroke-width: 1px; stroke-dasharray: 1px, 0px;"/></marker><marker id="mermaid-diagram-mobile_flowchart-v2-circleEnd" class="marker flowchart-v2" viewBox="0 0 10 10" refX="11" refY="5" markerUnits="userSpaceOnUse" markerWidth="11" markerHeight="11" orient="auto"><circle cx="5" cy="5" r="5" class="arrowMarkerPath" style="stroke-width: 1px; stroke-dasharray: 1px, 0px;"/></marker><marker id="mermaid-diagram-mobile_flowchart-v2-circleStart" class="marker flowchart-v2" viewBox="0 0 10 10" refX="-1" refY="5" markerUnits="userSpaceOnUse" markerWidth="11" markerHeight="11" orient="auto"><circle cx="5" cy="5" r="5" class="arrowMarkerPath" style="stroke-width: 1px; stroke-dasharray: 1px, 0px;"/></marker><marker id="mermaid-diagram-mobile_flowchart-v2-crossEnd" class="marker cross flowchart-v2" viewBox="0 0 11 11" refX="12" refY="5.2" markerUnits="userSpaceOnUse" markerWidth="11" markerHeight="11" orient="auto"><path d="M 1,1 l 9,9 M 10,1 l -9,9" class="arrowMarkerPath" style="stroke-width: 2px; stroke-dasharray: 1px, 0px;"/></marker><marker id="mermaid-diagram-mobile_flowchart-v2-crossStart" class="marker cross flowchart-v2" viewBox="0 0 11 11" refX="-1" refY="5.2" markerUnits="userSpaceOnUse" markerWidth="11" markerHeight="11" orient="auto"><path d="M 1,1 l 9,9 M 10,1 l -9,9" class="arrowMarkerPath" style="stroke-width: 2px; stroke-dasharray: 1px, 0px;"/></marker><g class="root"><g class="clusters"><g class="cluster " id="Agents" data-look="classic"><rect style="" x="1229.7166748046875" y="8" width="187.36666870117188" height="436"/><g class="cluster-label " transform="translate(1298.2916793823242, 8)"><foreignObject width="50.21665954589844" height="24"><div style="display: table-cell; white-space: nowrap; line-height: 1.5; max-width: 200px; text-align: center;" xmlns="http://www.w3.org/1999/xhtml"><span class="nodeLabel "><p>Agents</p></span></div></foreignObject></g></g></g><g class="edgePaths"><path d="M112.071,322L134.705,298.833C157.339,275.667,202.607,229.333,238.656,206.167C274.706,183,301.536,183,314.951,183L328.367,183" id="L_GL_WL_0" class=" edge-thickness-normal edge-pattern-solid edge-thickness-normal edge-pattern-solid flowchart-link" style="" marker-end="url(#mermaid-diagram-mobile_flowchart-v2-pointEnd)"/><path d="M520.15,183L524.317,183C528.483,183,536.817,183,544.765,183C552.714,183,560.278,183,564.06,183L567.842,183" id="L_WL_ER_0" class=" edge-thickness-normal edge-pattern-solid edge-thickness-normal edge-pattern-solid flowchart-link" style="" marker-end="url(#mermaid-diagram-mobile_flowchart-v2-pointEnd)"/><path d="M721.842,183L726.29,183C730.739,183,739.636,183,750.943,183C762.25,183,775.967,183,782.825,183L789.683,183" id="L_ER_TQ_0" class=" edge-thickness-normal edge-pattern-solid edge-thickness-normal edge-pattern-solid flowchart-link" style="" marker-end="url(#mermaid-diagram-mobile_flowchart-v2-pointEnd)"/><path d="M953.383,183L960.908,183C968.433,183,983.483,183,996.786,185.41C1010.089,187.82,1021.645,192.64,1027.423,195.05L1033.201,197.46" id="L_TQ_AR_0" class=" edge-thickness-normal edge-pattern-solid edge-thickness-normal edge-pattern-solid flowchart-link" style="" marker-end="url(#mermaid-diagram-mobile_flowchart-v2-pointEnd)"/><path d="M163.383,373.91L177.465,378.425C191.547,382.94,219.711,391.97,263.524,396.485C307.336,401,366.797,401,416.343,401C465.889,401,505.519,401,542.283,401C579.047,401,612.944,401,646.842,401C680.739,401,714.636,401,752.418,401C790.2,401,831.867,401,873.533,401C915.2,401,956.867,401,991.893,376.908C1026.919,352.815,1055.304,304.631,1069.497,280.539L1083.689,256.446" id="L_GL_AR_0" class=" edge-thickness-normal edge-pattern-dotted edge-thickness-normal edge-pattern-solid flowchart-link" style="" marker-end="url(#mermaid-diagram-mobile_flowchart-v2-pointEnd)"/><path d="M1119.468,199L1133.676,177.5C1147.884,156,1176.3,113,1194.675,91.5C1213.05,70,1221.383,70,1229.108,70C1236.833,70,1243.95,70,1247.508,70L1251.067,70" id="L_AR_C_0" class=" edge-thickness-normal edge-pattern-solid edge-thickness-normal edge-pattern-solid flowchart-link" style="" marker-end="url(#mermaid-diagram-mobile_flowchart-v2-pointEnd)"/><path d="M1155.153,199L1163.414,194.833C1171.674,190.667,1188.196,182.333,1200.623,178.167C1213.05,174,1221.383,174,1229.05,174C1236.717,174,1243.717,174,1247.217,174L1250.717,174" id="L_AR_G_0" class=" edge-thickness-normal edge-pattern-solid edge-thickness-normal edge-pattern-solid flowchart-link" style="" marker-end="url(#mermaid-diagram-mobile_flowchart-v2-pointEnd)"/><path d="M1155.153,253L1163.414,257.167C1171.674,261.333,1188.196,269.667,1200.623,273.833C1213.05,278,1221.383,278,1229.469,278C1237.556,278,1245.394,278,1249.314,278L1253.233,278" id="L_AR_Co_0" class=" edge-thickness-normal edge-pattern-solid edge-thickness-normal edge-pattern-solid flowchart-link" style="" marker-end="url(#mermaid-diagram-mobile_flowchart-v2-pointEnd)"/><path d="M1119.468,253L1133.676,274.5C1147.884,296,1176.3,339,1194.675,360.5C1213.05,382,1221.383,382,1234.443,382C1247.503,382,1265.289,382,1274.182,382L1283.075,382" id="L_AR_O_0" class=" edge-thickness-normal edge-pattern-solid edge-thickness-normal edge-pattern-solid flowchart-link" style="" marker-end="url(#mermaid-diagram-mobile_flowchart-v2-pointEnd)"/><path d="M1391.733,70L1395.958,70C1400.183,70,1408.633,70,1417.025,70C1425.417,70,1433.75,70,1456.375,99.601C1478.999,129.202,1515.915,188.404,1534.373,218.005L1552.831,247.606" id="L_C_API_0" class=" edge-thickness-normal edge-pattern-solid edge-thickness-normal edge-pattern-solid flowchart-link" style="" marker-end="url(#mermaid-diagram-mobile_flowchart-v2-pointEnd)"/><path d="M1392.083,174L1396.25,174C1400.417,174,1408.75,174,1417.083,174C1425.417,174,1433.75,174,1453.401,186.416C1473.052,198.833,1504.021,223.665,1519.506,236.081L1534.991,248.498" id="L_G_API_0" class=" edge-thickness-normal edge-pattern-solid edge-thickness-normal edge-pattern-solid flowchart-link" style="" marker-end="url(#mermaid-diagram-mobile_flowchart-v2-pointEnd)"/><path d="M1389.567,278L1394.153,278C1398.739,278,1407.911,278,1416.664,278C1425.417,278,1433.75,278,1441.417,278C1449.083,278,1456.083,278,1459.583,278L1463.083,278" id="L_Co_API_0" class=" edge-thickness-normal edge-pattern-solid edge-thickness-normal edge-pattern-solid flowchart-link" style="" marker-end="url(#mermaid-diagram-mobile_flowchart-v2-pointEnd)"/><path d="M1359.725,382L1369.285,382C1378.844,382,1397.964,382,1411.69,382C1425.417,382,1433.75,382,1453.401,369.584C1473.052,357.167,1504.021,332.335,1519.506,319.919L1534.991,307.502" id="L_O_API_0" class=" edge-thickness-normal edge-pattern-solid edge-thickness-normal edge-pattern-solid flowchart-link" style="" marker-end="url(#mermaid-diagram-mobile_flowchart-v2-pointEnd)"/><path d="M1552.956,305L1534.477,331.5C1515.998,358,1479.041,411,1456.395,437.5C1433.75,464,1425.417,464,1405.636,464C1385.856,464,1354.628,464,1323.4,464C1292.172,464,1260.944,464,1241.164,464C1221.383,464,1213.05,464,1191.701,464C1170.353,464,1135.989,464,1101.625,464C1067.261,464,1032.897,464,994.882,464C956.867,464,915.2,464,873.533,464C831.867,464,790.2,464,752.418,464C714.636,464,680.739,464,646.842,464C612.944,464,579.047,464,542.283,464C505.519,464,465.889,464,416.343,464C366.797,464,307.336,464,257.465,449.719C207.594,435.438,167.313,406.876,147.173,392.595L127.032,378.314" id="L_API_GL_0" class=" edge-thickness-normal edge-pattern-solid edge-thickness-normal edge-pattern-solid flowchart-link" style="" marker-end="url(#mermaid-diagram-mobile_flowchart-v2-pointEnd)"/></g><g class="edgeLabels"><g class="edgeLabel" transform="translate(247.875, 183)"><g class="label" transform="translate(-59.491668701171875, -12)"><foreignObject width="118.98333740234375" height="24"><div style="display: table-cell; white-space: nowrap; line-height: 1.5; max-width: 200px; text-align: center;" xmlns="http://www.w3.org/1999/xhtml" class="labelBkg"><span class="edgeLabel "><p>POST Webhooks</p></span></div></foreignObject></g></g><g class="edgeLabel"><g class="label" transform="translate(0, 0)"><foreignObject width="0" height="0"><div style="display: table-cell; white-space: nowrap; line-height: 1.5; max-width: 200px; text-align: center;" xmlns="http://www.w3.org/1999/xhtml" class="labelBkg"><span class="edgeLabel "></span></div></foreignObject></g></g><g class="edgeLabel"><g class="label" transform="translate(0, 0)"><foreignObject width="0" height="0"><div style="display: table-cell; white-space: nowrap; line-height: 1.5; max-width: 200px; text-align: center;" xmlns="http://www.w3.org/1999/xhtml" class="labelBkg"><span class="edgeLabel "></span></div></foreignObject></g></g><g class="edgeLabel"><g class="label" transform="translate(0, 0)"><foreignObject width="0" height="0"><div style="display: table-cell; white-space: nowrap; line-height: 1.5; max-width: 200px; text-align: center;" xmlns="http://www.w3.org/1999/xhtml" class="labelBkg"><span class="edgeLabel "></span></div></foreignObject></g></g><g class="edgeLabel" transform="translate(646.8416748046875, 401)"><g class="label" transform="translate(-76.69166564941406, -12)"><foreignObject width="153.38333129882812" height="24"><div style="display: table-cell; white-space: nowrap; line-height: 1.5; max-width: 200px; text-align: center;" xmlns="http://www.w3.org/1999/xhtml" class="labelBkg"><span class="edgeLabel "><p>Pull code and context</p></span></div></foreignObject></g></g><g class="edgeLabel"><g class="label" transform="translate(0, 0)"><foreignObject width="0" height="0"><div style="display: table-cell; white-space: nowrap; line-height: 1.5; max-width: 200px; text-align: center;" xmlns="http://www.w3.org/1999/xhtml" class="labelBkg"><span class="edgeLabel "></span></div></foreignObject></g></g><g class="edgeLabel"><g class="label" transform="translate(0, 0)"><foreignObject width="0" height="0"><div style="display: table-cell; white-space: nowrap; line-height: 1.5; max-width: 200px; text-align: center;" xmlns="http://www.w3.org/1999/xhtml" class="labelBkg"><span class="edgeLabel "></span></div></foreignObject></g></g><g class="edgeLabel"><g class="label" transform="translate(0, 0)"><foreignObject width="0" height="0"><div style="display: table-cell; white-space: nowrap; line-height: 1.5; max-width: 200px; text-align: center;" xmlns="http://www.w3.org/1999/xhtml" class="labelBkg"><span class="edgeLabel "></span></div></foreignObject></g></g><g class="edgeLabel"><g class="label" transform="translate(0, 0)"><foreignObject width="0" height="0"><div style="display: table-cell; white-space: nowrap; line-height: 1.5; max-width: 200px; text-align: center;" xmlns="http://www.w3.org/1999/xhtml" class="labelBkg"><span class="edgeLabel "></span></div></foreignObject></g></g><g class="edgeLabel"><g class="label" transform="translate(0, 0)"><foreignObject width="0" height="0"><div style="display: table-cell; white-space: nowrap; line-height: 1.5; max-width: 200px; text-align: center;" xmlns="http://www.w3.org/1999/xhtml" class="labelBkg"><span class="edgeLabel "></span></div></foreignObject></g></g><g class="edgeLabel"><g class="label" transform="translate(0, 0)"><foreignObject width="0" height="0"><div style="display: table-cell; white-space: nowrap; line-height: 1.5; max-width: 200px; text-align: center;" xmlns="http://www.w3.org/1999/xhtml" class="labelBkg"><span class="edgeLabel "></span></div></foreignObject></g></g><g class="edgeLabel"><g class="label" transform="translate(0, 0)"><foreignObject width="0" height="0"><div style="display: table-cell; white-space: nowrap; line-height: 1.5; max-width: 200px; text-align: center;" xmlns="http://www.w3.org/1999/xhtml" class="labelBkg"><span class="edgeLabel "></span></div></foreignObject></g></g><g class="edgeLabel"><g class="label" transform="translate(0, 0)"><foreignObject width="0" height="0"><div style="display: table-cell; white-space: nowrap; line-height: 1.5; max-width: 200px; text-align: center;" xmlns="http://www.w3.org/1999/xhtml" class="labelBkg"><span class="edgeLabel "></span></div></foreignObject></g></g><g class="edgeLabel" transform="translate(873.5333404541016, 464)"><g class="label" transform="translate(-100, -24)"><foreignObject width="200" height="48"><div style="display: table; white-space: break-spaces; line-height: 1.5; max-width: 200px; text-align: center; width: 200px;" xmlns="http://www.w3.org/1999/xhtml" class="labelBkg"><span class="edgeLabel "><p>Post responses and push code</p></span></div></foreignObject></g></g></g><g class="nodes"><g class="node default  " id="flowchart-GL-0" transform="translate(85.69166564941406, 349)"><rect class="basic label-container" style="" x="-77.69166564941406" y="-27" width="155.38333129882812" height="54"/><g class="label" style="" transform="translate(-47.69166564941406, -12)"><rect/><foreignObject width="95.38333129882812" height="24"><div style="display: table-cell; white-space: nowrap; line-height: 1.5; max-width: 200px; text-align: center;" xmlns="http://www.w3.org/1999/xhtml"><span class="nodeLabel "><p>GitLab Server</p></span></div></foreignObject></g></g><g class="node default  " id="flowchart-WL-1" transform="translate(426.25833892822266, 183)"><rect class="basic label-container" style="" x="-93.89167022705078" y="-27" width="187.78334045410156" height="54"/><g class="label" style="" transform="translate(-63.89167022705078, -12)"><rect/><foreignObject width="127.78334045410156" height="24"><div style="display: table-cell; white-space: nowrap; line-height: 1.5; max-width: 200px; text-align: center;" xmlns="http://www.w3.org/1999/xhtml"><span class="nodeLabel "><p>Webhook Listener</p></span></div></foreignObject></g></g><g class="node default  " id="flowchart-ER-3" transform="translate(646.8416748046875, 183)"><rect class="basic label-container" style="" x="-75" y="-39" width="150" height="78"/><g class="label" style="" transform="translate(-45, -24)"><rect/><foreignObject width="90" height="48"><div style="display: table-cell; white-space: nowrap; line-height: 1.5; max-width: 200px; text-align: center;" xmlns="http://www.w3.org/1999/xhtml"><span class="nodeLabel "><p>Event Router<br />routes.yaml</p></span></div></foreignObject></g></g><g class="node default  " id="flowchart-TQ-5" transform="translate(873.5333404541016, 183)"><rect class="basic label-container" style="" x="-79.8499984741211" y="-39" width="159.6999969482422" height="78"/><g class="label" style="" transform="translate(-49.849998474121094, -24)"><rect/><foreignObject width="99.69999694824219" height="48"><div style="display: table-cell; white-space: nowrap; line-height: 1.5; max-width: 200px; text-align: center;" xmlns="http://www.w3.org/1999/xhtml"><span class="nodeLabel "><p>Trigger Queue<br />FIFO, async</p></span></div></foreignObject></g></g><g class="node default  " id="flowchart-AR-7" transform="translate(1101.6250076293945, 226)"><rect class="basic label-container" style="" x="-78.09166717529297" y="-27" width="156.18333435058594" height="54"/><g class="label" style="" transform="translate(-48.09166717529297, -12)"><rect/><foreignObject width="96.18333435058594" height="24"><div style="display: table-cell; white-space: nowrap; line-height: 1.5; max-width: 200px; text-align: center;" xmlns="http://www.w3.org/1999/xhtml"><span class="nodeLabel "><p>Agent Runner</p></span></div></foreignObject></g></g><g class="node default  " id="flowchart-C-10" transform="translate(1323.4000091552734, 70)"><rect class="basic label-container" style="" x="-68.33333587646484" y="-27" width="136.6666717529297" height="54"/><g class="label" style="" transform="translate(-38.333335876464844, -12)"><rect/><foreignObject width="76.66667175292969" height="24"><div style="display: table-cell; white-space: nowrap; line-height: 1.5; max-width: 200px; text-align: center;" xmlns="http://www.w3.org/1999/xhtml"><span class="nodeLabel "><p>Claude CLI</p></span></div></foreignObject></g></g><g class="node default  " id="flowchart-G-11" transform="translate(1323.4000091552734, 174)"><rect class="basic label-container" style="" x="-68.68333435058594" y="-27" width="137.36666870117188" height="54"/><g class="label" style="" transform="translate(-38.68333435058594, -12)"><rect/><foreignObject width="77.36666870117188" height="24"><div style="display: table-cell; white-space: nowrap; line-height: 1.5; max-width: 200px; text-align: center;" xmlns="http://www.w3.org/1999/xhtml"><span class="nodeLabel "><p>Gemini CLI</p></span></div></foreignObject></g></g><g class="node default  " id="flowchart-Co-12" transform="translate(1323.4000091552734, 278)"><rect class="basic label-container" style="" x="-66.16666412353516" y="-27" width="132.3333282470703" height="54"/><g class="label" style="" transform="translate(-36.166664123535156, -12)"><rect/><foreignObject width="72.33332824707031" height="24"><div style="display: table-cell; white-space: nowrap; line-height: 1.5; max-width: 200px; text-align: center;" xmlns="http://www.w3.org/1999/xhtml"><span class="nodeLabel "><p>Codex CLI</p></span></div></foreignObject></g></g><g class="node default  " id="flowchart-O-13" transform="translate(1323.4000091552734, 382)"><rect class="basic label-container" style="" x="-36.32499694824219" y="-27" width="72.64999389648438" height="54"/><g class="label" style="" transform="translate(-6.3249969482421875, -12)"><rect/><foreignObject width="12.649993896484375" height="24"><div style="display: table-cell; white-space: nowrap; line-height: 1.5; max-width: 200px; text-align: center;" xmlns="http://www.w3.org/1999/xhtml"><span class="nodeLabel "><p>...</p></span></div></foreignObject></g></g><g class="node default  " id="flowchart-API-22" transform="translate(1571.7833404541016, 278)"><rect class="basic label-container" style="" x="-104.69999694824219" y="-27" width="209.39999389648438" height="54"/><g class="label" style="" transform="translate(-74.69999694824219, -12)"><rect/><foreignObject width="149.39999389648438" height="24"><div style="display: table-cell; white-space: nowrap; line-height: 1.5; max-width: 200px; text-align: center;" xmlns="http://www.w3.org/1999/xhtml"><span class="nodeLabel "><p>gitlab-connect helper</p></span></div></foreignObject></g></g></g></g></g></svg>